<svg width="54" height="54" viewBox="0 0 54 54" fill="none" xmlns="http://www.w3.org/2000/svg">
<g filter="url(#filter0_b_1_31)">
<rect width="54" height="54" rx="10" fill="#686868" fill-opacity="0.22"/>
</g>
<path d="M38.4793 20.1077C37.6894 20.4542 36.8299 20.7036 35.9445 20.8007C36.8637 20.2454 37.5521 19.3681 37.8805 18.3334C37.0179 18.8551 36.0729 19.221 35.0875 19.4148C34.6756 18.9671 34.1775 18.6104 33.6241 18.367C33.0707 18.1236 32.474 17.9987 31.8711 18C29.4317 18 27.4699 20.0106 27.4699 22.478C27.4699 22.8244 27.5112 23.1709 27.5783 23.5043C23.9257 23.31 20.6681 21.5356 18.5023 18.819C18.1077 19.5043 17.9009 20.2847 17.9035 21.0789C17.9035 22.6328 18.6805 24.003 19.8653 24.8088C19.167 24.7808 18.4852 24.5857 17.8751 24.2392V24.2943C17.8751 26.4703 19.3877 28.2736 21.4038 28.6883C21.0252 28.7883 20.6358 28.8394 20.2447 28.8405C19.9582 28.8405 19.6872 28.8116 19.4136 28.7723C19.9711 30.5467 21.5948 31.8354 23.5282 31.8774C22.0155 33.0822 20.1208 33.7909 18.0635 33.7909C17.6944 33.7909 17.3536 33.7778 17 33.7358C18.9515 35.0089 21.267 35.7438 23.7605 35.7438C31.8556 35.7438 36.2852 28.9245 36.2852 23.0055C36.2852 22.8113 36.2852 22.6171 36.2723 22.4228C37.1293 21.785 37.8805 20.9949 38.4793 20.1077Z" fill="#F0F0F0"/>
<defs>
<filter id="filter0_b_1_31" x="-4" y="-4" width="62" height="62" filterUnits="userSpaceOnUse" color-interpolation-filters="sRGB">
<feFlood flood-opacity="0" result="BackgroundImageFix"/>
<feGaussianBlur in="BackgroundImageFix" stdDeviation="2"/>
<feComposite in2="SourceAlpha" operator="in" result="effect1_backgroundBlur_1_31"/>
<feBlend mode="normal" in="SourceGraphic" in2="effect1_backgroundBlur_1_31" result="shape"/>
</filter>
</defs>
</svg>
