<svg width="32" height="43" viewBox="0 0 32 43" fill="none" xmlns="http://www.w3.org/2000/svg">
<path d="M31.9312 26.9351C31.9312 35.6196 24.9073 42.7611 16.2081 42.8787C14.9297 42.8934 13.6659 42.7611 12.4757 42.4819C12.1818 42.4232 11.8879 42.335 11.594 42.2615C11.5793 42.2615 11.5646 42.2468 11.5499 42.2468C11.4617 42.2174 11.3736 42.2027 11.2854 42.1733C11.2707 42.1733 11.2707 42.1733 11.256 42.1587C11.1679 42.1293 11.065 42.0999 10.9768 42.0705C10.9621 42.0705 10.9621 42.0705 10.9474 42.0558C10.8593 42.0264 10.7564 41.997 10.6682 41.9676C10.5654 41.9382 10.4625 41.8941 10.3597 41.8648C9.88943 41.6884 9.4192 41.4827 8.96367 41.2623C8.96367 41.2623 8.96367 41.2623 8.94898 41.2623C8.80203 41.1888 8.65509 41.1153 8.50814 41.0419C8.3612 40.9684 8.21425 40.8802 8.06731 40.7921C7.92036 40.7039 7.77342 40.6304 7.64116 40.5423C7.49422 40.4541 7.36197 40.3659 7.21502 40.2778C7.14155 40.2337 7.08277 40.1896 7.0093 40.1308C6.95052 40.0867 6.87705 40.0426 6.81827 39.9986L6.80358 39.9839C6.67132 39.8957 6.53907 39.7928 6.40682 39.69C6.34804 39.6459 6.28927 39.6018 6.23049 39.543C6.09824 39.4402 5.95129 39.3226 5.81904 39.2197C5.76026 39.161 5.68679 39.1169 5.62801 39.0581C5.56923 38.9993 5.49576 38.9552 5.43698 38.8965C5.3782 38.8524 5.31943 38.7936 5.26065 38.7348C5.1284 38.6173 5.01084 38.4997 4.87859 38.3822C4.81981 38.3234 4.76103 38.2646 4.70225 38.2058C4.64348 38.147 4.5847 38.0883 4.52592 38.0295C4.39367 37.8972 4.27611 37.765 4.14386 37.618C4.09978 37.574 4.05569 37.5152 4.01161 37.4711C3.95283 37.4123 3.90875 37.3388 3.84997 37.2801C3.79119 37.2213 3.74711 37.1478 3.68833 37.089C3.57077 36.9568 3.46791 36.8245 3.36505 36.6776C3.32097 36.6188 3.27688 36.56 3.21811 36.5013C3.17402 36.4425 3.12994 36.369 3.07116 36.3102C3.07116 36.3102 3.07116 36.3102 3.07116 36.2955C3.02708 36.2221 2.9683 36.1633 2.92421 36.0898C2.77727 35.8841 2.64502 35.6784 2.49807 35.4726C2.45399 35.3992 2.40991 35.3257 2.36582 35.2669C2.32174 35.1934 2.27765 35.12 2.23357 35.0465C2.23357 35.0465 2.23357 35.0318 2.21888 35.0318C2.17479 34.9583 2.1454 34.8995 2.10132 34.8261C2.05724 34.7526 2.01315 34.6791 1.98376 34.6057C1.93968 34.5322 1.91029 34.4587 1.86621 34.3852C1.82212 34.3118 1.79273 34.2383 1.74865 34.1648C1.67518 34.0179 1.60171 33.8709 1.52823 33.7093C1.49884 33.6358 1.45476 33.5623 1.42537 33.4889C1.42537 33.4889 1.42537 33.4889 1.42537 33.4742C1.39598 33.4007 1.3519 33.3125 1.32251 33.2391C1.29312 33.1656 1.26373 33.0921 1.21965 33.0186V33.004C1.19026 32.9305 1.16087 32.857 1.13148 32.7688C1.0727 32.6072 1.01392 32.4603 0.955145 32.2986C0.925756 32.2251 0.896367 32.137 0.866978 32.0635C0.837589 31.99 0.822895 31.9312 0.793505 31.8578C0.793505 31.8431 0.778811 31.8284 0.778811 31.8137C0.749422 31.7402 0.734727 31.6667 0.705338 31.5786C0.705338 31.5639 0.705338 31.5639 0.690644 31.5492C0.661255 31.4757 0.64656 31.4022 0.617171 31.3141C0.529004 31.0202 0.455531 30.7263 0.396753 30.4324C0.146945 29.3009 0 28.1254 0 26.9057V0C4.59939 0 8.31711 3.71772 8.31711 8.31711V12.9459C10.5801 11.7116 13.181 11.0062 15.9289 11.0062C24.7897 11.0062 31.9166 18.1331 31.9312 26.9351Z" fill="white"/>
<path d="M16.0758 37.4858C21.9677 37.4858 26.7441 32.7094 26.7441 26.8175C26.7441 20.9256 21.9677 16.1493 16.0758 16.1493C10.1839 16.1493 5.40759 20.9256 5.40759 26.8175C5.40759 32.7094 10.1839 37.4858 16.0758 37.4858Z" fill="#4079E4"/>
<path d="M16.0759 36.2515C21.2861 36.2515 25.5098 32.0278 25.5098 26.8176C25.5098 21.6074 21.2861 17.3837 16.0759 17.3837C10.8657 17.3837 6.64197 21.6074 6.64197 26.8176C6.64197 32.0278 10.8657 36.2515 16.0759 36.2515Z" fill="white"/>
<path opacity="0.3" d="M18.1183 26.0682C18.1624 26.5531 18.5003 28.2136 20.8662 28.2136C23.1879 28.2136 23.6728 26.5825 23.7757 26.0388C23.3348 25.9801 22.894 25.936 22.4532 25.9066C21.4686 25.8331 20.4988 25.8478 19.529 25.9213C19.0734 25.936 18.5885 25.9947 18.1183 26.0682Z" fill="url(#paint0_linear_1_65)"/>
<path d="M17.1338 25.451V26.2299C17.4718 26.1711 17.795 26.1123 18.133 26.0535C18.6032 25.9801 19.0735 25.936 19.5584 25.8919C20.5282 25.8184 21.4981 25.8184 22.4826 25.8772C22.9234 25.9066 23.3643 25.9507 23.8051 26.0094C23.9668 26.0241 24.1137 26.0535 24.2753 26.0829C24.6574 24.8927 23.761 22.2623 20.778 22.2623C18.7208 22.2623 17.7657 23.5701 17.3836 24.3783C17.2073 24.731 17.1338 25.0837 17.1338 25.451Z" fill="#4079E4"/>
<path d="M19.5437 25.9066C19.6319 26.1564 19.9698 26.7589 21.0278 26.7589C22.0565 26.7589 22.3797 26.1417 22.4679 25.8919C21.4834 25.8331 20.5135 25.8331 19.5437 25.9066Z" fill="#080828"/>
<path opacity="0.3" d="M14.0333 26.0682C13.9892 26.5531 13.6512 28.2136 11.2854 28.2136C8.96364 28.2136 8.47872 26.5825 8.37585 26.0388C8.81669 25.9801 9.25753 25.936 9.69836 25.9066C10.6829 25.8331 11.6527 25.8478 12.6226 25.9213C13.0928 25.936 13.563 25.9947 14.0333 26.0682Z" fill="url(#paint1_linear_1_65)"/>
<path d="M15.0325 25.451V26.2299C14.6945 26.1711 14.3713 26.1123 14.0333 26.0535C13.5631 25.9801 13.0928 25.936 12.6079 25.8919C11.6381 25.8184 10.6682 25.8184 9.68371 25.8772C9.24287 25.9066 8.80204 25.9507 8.3612 26.0094C8.19956 26.0241 8.05261 26.0535 7.89097 26.0829C7.50892 24.8927 8.40528 22.2623 11.3883 22.2623C13.4455 22.2623 14.4007 23.5701 14.7827 24.3783C14.959 24.731 15.0325 25.0837 15.0325 25.451Z" fill="#4079E4"/>
<path d="M12.6226 25.9066C12.5344 26.1564 12.1964 26.7589 11.1384 26.7589C10.1098 26.7589 9.78653 26.1417 9.69836 25.8919C10.6829 25.8331 11.6527 25.8331 12.6226 25.9066Z" fill="#080828"/>
<defs>
<linearGradient id="paint0_linear_1_65" x1="18.1224" y1="27.0267" x2="23.785" y2="27.0267" gradientUnits="userSpaceOnUse">
<stop stop-color="#0043EC"/>
<stop offset="1" stop-color="#1563FF"/>
</linearGradient>
<linearGradient id="paint1_linear_1_65" x1="14.0378" y1="27.0267" x2="8.37509" y2="27.0267" gradientUnits="userSpaceOnUse">
<stop stop-color="#0043EC"/>
<stop offset="1" stop-color="#1563FF"/>
</linearGradient>
</defs>
</svg>
